PathFileType	4	(X/Y/Z)	D:\TRACE\spotREDO_2-26-24\spot_justArm_Motion_1_1-v60.trc
DataRate	CameraRate	NumFrames	NumMarkers	Units	OrigDataRate	OrigDataStartFrame	OrigNumFrames
100.00	100.00	      27	9	mm	100.00	1	      7000
Frame#	Time	front left toe			Front right toe			aft left toe			aft right toe			Arm			FL body			FR body			AL Body			AR Body			
		X1	Y1	Z1	X2	Y2	Z2	X3	Y3	Z3	X4	Y4	Z4	X5	Y5	Z5	X6	Y6	Z6	X7	Y7	Z7	X8	Y8	Z8	X9	Y9	Z9	

1	0.000	-291.28525	113.24917	-174.83063	111.97300	140.52930	-259.84525	-196.41008	139.02870	417.95847	208.75589	188.01767	347.01645	-67.51976	605.27368	-391.97601	-146.86757	349.04535	-336.54044	6.58547	351.57013	-363.70288	-3.40551	420.89105	532.74078	142.69633	419.35529	509.38922	
2	0.010	-292.09616	113.99538	-172.39833	110.96390	140.68024	-257.99768	-197.55505	140.10426	420.26639	208.00648	188.26823	348.67108	-69.01977	605.22632	-391.47122	-148.62772	349.01514	-335.95807	4.77276	351.40155	-363.31934	-4.69622	420.89801	533.17139	141.45695	419.27231	509.86557	
3	0.020	-293.52240	114.92638	-170.14146	110.04922	140.77066	-256.28052	-198.46346	141.11523	422.71982	208.84834	188.78575	350.43741	-70.79327	605.14606	-391.19650	-150.14305	348.96573	-335.30856	3.34145	351.47321	-362.83954	-6.16138	420.84750	533.46625	140.20889	419.14899	510.33170	
4	0.030	-294.86282	115.68592	-167.52744	109.48658	140.85710	-254.59679	-199.67657	141.85515	425.33286	207.72986	188.95786	351.89172	-72.56127	605.28656	-390.58807	-151.57420	348.94913	-334.83801	1.77878	351.45804	-362.35480	-7.46743	420.71213	533.95636	138.77486	419.04666	510.65900	
5	0.040	-296.18161	116.23314	-164.90007	108.84618	141.12247	-253.02026	-200.29526	142.79436	427.69281	207.29167	189.25603	353.61951	-74.18195	605.27161	-390.12067	-154.16536	349.53595	-335.17569	0.20775	351.50183	-362.00797	-8.54093	420.60089	534.22235	137.79863	419.07535	510.93683	
6	0.050	-296.15192	116.83267	-162.65138	108.31538	141.32393	-251.30066	-201.41077	143.82359	430.07217	207.94675	190.03099	355.36267	-76.02319	605.18121	-389.59402	-154.85358	348.98679	-333.90356	-1.52769	351.41043	-361.42517	-9.90680	420.62473	534.86688	136.49719	419.02548	511.35104	
7	0.060	-298.04520	117.79523	-160.31778	107.49310	141.83934	-249.73965	-202.08914	144.43369	432.62790	208.12914	190.57440	357.21732	-77.53058	605.31964	-389.03830	-156.53929	348.89182	-333.47098	-2.96584	351.63651	-361.02908	-11.39011	420.09982	535.05573	135.09888	418.96585	511.78235	
8	0.070	-299.51651	118.33241	-157.43898	107.37121	142.26761	-247.98424	-203.03784	145.81389	435.05441	207.05275	190.58885	358.96750	-79.36718	605.50415	-388.44852	-158.15923	348.82736	-332.93253	-4.70489	351.83829	-360.68140	-12.68981	420.08942	535.37402	133.83023	419.01929	512.09973	
9	0.080	-300.45721	119.03390	-155.08006	106.56551	142.71327	-246.33755	-203.75243	146.71074	437.46503	207.87955	191.63307	360.70615	-81.53681	605.90918	-388.16779	-159.59941	349.07510	-332.59116	-6.39317	351.88910	-360.35028	-13.56134	420.37329	536.19891	132.45418	419.23792	512.43024	
10	0.090	-301.00302	119.87584	-152.66412	106.58053	143.39650	-244.56699	-204.57945	147.72128	440.14670	208.00107	191.94960	362.56320	-82.89304	605.83356	-387.42856	-161.17479	348.99045	-332.02097	-7.86181	352.14935	-359.90454	-14.68095	420.34781	536.76868	131.48830	419.38693	512.92908	
11	0.100	-302.04614	120.90853	-150.34787	105.94435	144.04652	-242.93742	-205.19081	148.81699	442.55368	207.50427	192.33493	364.46616	-84.86377	605.83594	-386.92291	-162.63063	349.03583	-331.37881	-9.27578	352.25632	-359.37250	-16.33433	420.32199	537.19763	129.89571	419.45624	513.35400	
12	0.110	-303.21164	121.60130	-147.66519	105.93491	144.46632	-241.06218	-205.93481	149.82239	445.01154	206.77060	192.64197	366.05939	-86.66709	605.70740	-386.33411	-163.97862	348.96735	-330.86230	-10.75804	352.29816	-358.81696	-17.38502	420.29230	537.52155	128.77135	419.51627	513.61639	
13	0.120	-303.96732	122.41937	-145.41100	105.40695	145.03880	-239.40826	-206.48085	150.67342	447.66467	207.13556	193.58464	367.83371	-88.28388	605.86273	-386.01431	-165.56447	348.72391	-330.16788	-12.46358	352.62732	-358.42398	-18.89218	420.31458	538.01208	127.31377	419.59735	514.04010	
14	0.130	-304.81564	123.19196	-143.10751	105.20317	145.51054	-237.61575	-207.25954	151.74217	450.06268	207.34222	194.42465	369.64627	-90.40076	605.94495	-385.33121	-168.15511	349.63333	-330.89432	-13.77656	352.69061	-358.00696	-19.95103	420.21686	538.49701	126.25672	419.74643	514.44519	
15	0.140	-305.60129	123.75448	-140.43852	105.05340	146.29375	-236.00526	-207.83670	152.57689	452.63547	206.90739	194.58699	371.55856	-91.86981	605.90765	-384.91678	-168.69539	348.77402	-329.40695	-15.41199	352.69556	-357.63391	-21.12358	420.04333	539.00317	125.15941	419.74469	514.84943	
16	0.150	-306.23694	124.30700	-137.61896	104.60653	146.72472	-234.25500	-208.40900	153.85204	454.98676	207.92789	195.51225	373.59937	-93.70807	605.86487	-384.29337	-170.26073	348.73444	-328.84335	-16.72093	352.18320	-356.71829	-22.51177	419.68527	539.07007	124.01711	419.76852	515.24207	
17	0.160	-307.14423	125.37408	-135.45915	104.47423	147.40022	-232.57025	-208.78432	154.96907	457.50339	207.52991	196.42532	375.32446	-95.41412	605.80066	-383.92587	-172.18837	349.03979	-329.01566	-18.53880	352.85538	-356.82181	-23.55976	419.58960	539.48224	122.85323	419.75671	515.71582	
18	0.170	-308.22562	126.45992	-132.99527	104.15395	147.91103	-230.73094	-209.90677	156.31108	459.89056	207.96935	197.39934	377.08371	-97.05726	605.80902	-383.31012	-173.13638	348.62946	-328.01633	-19.87020	352.75317	-356.20193	-24.40388	419.79504	540.39215	122.10014	420.01553	516.57532	
19	0.180	-308.97095	127.34171	-130.41104	103.97906	148.15997	-229.21249	-210.12180	157.47433	462.23398	208.27214	198.52708	378.97861	-98.67780	605.82037	-382.85205	-174.55493	348.59534	-327.62701	-21.18635	352.71225	-355.74765	-25.20002	419.79288	540.92963	121.30035	420.13409	516.80640	
20	0.190	-309.60129	128.35681	-127.92931	103.90140	149.13991	-227.28345	-210.88548	158.58502	465.10101	207.86661	199.38374	380.58951	-100.28303	605.80475	-382.28137	-175.93692	348.31018	-326.80005	-22.39604	352.60031	-354.90195	-26.47722	420.01407	541.31610	119.99678	420.07050	516.87384	
21	0.200	-310.62402	129.73387	-125.69917	103.43138	149.64453	-225.24452	-211.10803	159.96808	467.45593	209.02827	200.75858	382.69461	-101.88261	605.95551	-381.96078	-177.24789	348.31348	-326.20410	-24.13509	352.98956	-354.93469	-27.31659	420.10562	541.67200	118.75495	420.26419	517.38660	
22	0.210	-311.44376	130.65376	-122.75280	103.12036	150.54007	-223.70639	-211.41510	161.02544	469.66022	209.31198	201.66176	384.51675	-103.29469	605.96735	-381.50214	-178.48317	348.37277	-325.85654	-25.41529	353.01569	-354.34262	-28.77559	419.78595	541.89844	118.20164	420.29422	517.54858	
23	0.220	-312.06778	131.66908	-120.30288	102.84591	150.94569	-221.71579	-211.95625	162.63214	472.23044	208.62326	202.66898	386.09305	-104.79835	605.88361	-381.10806	-180.21451	348.40329	-325.44412	-26.76865	352.97784	-354.00385	-29.59635	419.84424	542.35944	117.27377	420.35831	517.89386	
24	0.230	-313.11389	133.27109	-118.13963	102.69257	151.75233	-219.61301	-212.41820	164.15460	474.85724	209.34213	203.91307	388.02216	-106.07182	605.98730	-380.59912	-181.32344	348.41034	-324.76944	-28.39651	352.91959	-353.60446	-30.16119	420.28586	542.95032	116.62018	420.42145	518.35950	
25	0.240	-314.09857	134.43054	-115.61803	102.51859	152.29190	-217.94246	-213.15210	165.97032	477.22125	208.66371	204.79631	389.53452	-107.47468	605.90381	-380.13202	-182.65141	348.28073	-323.88837	-29.65579	352.72806	-353.07437	-31.17682	420.35919	543.43671	116.19974	420.51309	518.82404	
26	0.250	-314.81232	135.46564	-112.81629	102.15753	152.85300	-215.92339	-213.65382	167.46524	479.78198	208.48563	205.33307	391.49506	-108.43124	605.62323	-379.54617	-184.80540	348.72040	-324.26474	-31.05997	352.82541	-352.65369	-31.85468	420.52121	543.89941	115.43744	420.65015	519.08356	
27	0.260	-315.74857	137.03786	-110.51131	102.05341	153.16443	-214.12831	-214.21547	169.36156	482.05115	210.26891	206.89743	393.46732	-110.05816	605.57477	-379.22113	-185.38489	348.34518	-323.18756	-32.03896	352.17175	-351.63205	-32.81087	420.74997	544.30573	112.87579	420.84421	519.26007	
